<svg data-v-423bf9ae="" xmlns="http://www.w3.org/2000/svg" viewBox="0 0 501.10258594149616 60" class="font"><!----><!----><!----><g data-v-423bf9ae="" id="28f5c84b-3eb8-4b4e-b455-a081ed36533b" fill="white" transform="matrix(4.187020259556475,0,0,4.187020259556475,-5.526863341221826,2.0935091761039217)"><path d="M6.08 2.34L9.04 2.34L9.32 0.88L1.58 0.88L1.32 2.34L4.21 2.34L2.60 10.50L4.48 10.50ZM12.07 2.94L12.74-0.50L10.88-0.50L8.79 10.50L10.63 10.50L11.34 6.75C11.63 5.17 12.50 4.23 13.57 4.23C14.95 4.23 14.71 5.29 14.50 6.27L13.66 10.50L15.48 10.50L16.37 5.98C16.72 4.19 16.42 2.86 14.36 2.86C13.15 2.86 12.28 3.47 11.79 4.34ZM20.64 10.64C22.48 10.64 23.37 9.93 23.98 8.71L22.40 8.20C22.13 8.88 21.63 9.39 20.80 9.39C19.88 9.39 19.31 8.65 19.46 7.29L19.47 7.14L24.47 7.14C24.57 6.66 24.64 6.08 24.64 5.66C24.64 3.98 23.69 2.86 21.60 2.86C19.10 2.86 17.86 4.41 17.61 6.78C17.36 9.09 18.16 10.64 20.64 10.64ZM21.56 4.00C22.22 4.00 22.99 4.33 22.96 5.53C22.96 5.63 22.96 5.77 22.95 5.91L19.63 5.91C19.91 4.45 20.71 4.00 21.56 4.00ZM34.06 10.63C36.09 10.63 37.35 10.11 38.57 9.25L39.28 5.47L35.10 5.47L34.85 6.83L37.30 6.83L36.97 8.43C36.39 8.78 35.45 9.16 34.20 9.16C32.38 9.16 31.60 7.95 31.60 6.47C31.60 4.03 32.94 2.23 35.35 2.23C36.74 2.23 37.42 2.98 37.62 3.84L39.44 3.33C39.02 1.96 37.86 0.74 35.45 0.74C31.91 0.74 29.69 3.09 29.69 6.52C29.69 8.92 31.11 10.63 34.06 10.63ZM47.43 9.37L46.77 9.37C46.48 9.37 46.28 9.25 46.37 8.86L47.01 5.66C47.31 4.27 46.86 2.86 44.42 2.86C42.60 2.86 41.61 3.70 41.29 4.83L42.94 5.12C43.16 4.27 43.85 4.12 44.28 4.12C45.12 4.12 45.51 4.65 45.37 5.38L45.22 6.12L44.00 6.12C42.25 6.15 40.57 6.48 40.24 8.09C39.96 9.41 40.66 10.64 42.35 10.64C43.40 10.64 44.20 10.22 44.66 9.45C44.59 10.08 44.97 10.64 46.05 10.64C46.61 10.64 46.89 10.61 47.19 10.58ZM43.02 9.39C42.21 9.39 41.82 8.85 41.96 8.11C42.13 7.24 42.97 7.13 44.02 7.11L45.02 7.11L44.95 7.50C44.74 8.54 44.04 9.39 43.02 9.39ZM52.84 10.50L54.63 10.50L55.36 6.73C55.68 5.04 56.32 4.20 57.29 4.20C58.48 4.20 58.24 5.29 58.09 6.10L57.25 10.50L59.04 10.50L59.92 5.98C60.26 4.28 59.99 2.84 57.96 2.84C57.01 2.84 56.18 3.43 55.68 4.40C55.61 3.56 55.10 2.84 54.03 2.84C52.68 2.84 51.86 3.53 51.39 4.33C51.45 3.91 51.51 3.43 51.55 3.00L49.80 3.00C49.76 3.28 49.67 3.98 49.55 4.59L48.38 10.50L50.22 10.50L50.93 6.75C51.17 5.47 51.97 4.23 52.86 4.23C54.04 4.23 53.82 5.26 53.68 6.10ZM60.94 10.50L62.76 10.50L64.23 3.00L62.41 3.00ZM62.58 1.85L64.46 1.85L64.81 0.14L62.93 0.14ZM69.51 10.50L71.33 10.50L72.21 5.98C72.56 4.19 72.27 2.86 70.21 2.86C69.05 2.86 68.18 3.39 67.63 4.35L67.80 3.00L66.04 3.00C66.01 3.28 65.93 3.98 65.80 4.59L64.64 10.50L66.47 10.50L67.19 6.75C67.48 5.17 68.35 4.23 69.41 4.23C70.81 4.23 70.56 5.32 70.35 6.30ZM75.68 10.64C76.99 10.64 77.71 10.08 78.18 9.38L78.11 9.73L77.91 10.67C77.63 12.03 77.11 12.60 75.98 12.60C75.21 12.60 74.73 12.31 74.61 11.68L72.80 11.89C73.00 13.12 73.89 13.83 75.87 13.83C78.25 13.83 79.35 12.75 79.74 10.75L80.88 4.94C81.00 4.33 81.19 3.46 81.30 3.00L79.53 3.00C79.45 3.26 79.34 3.72 79.25 4.19C78.97 3.39 78.18 2.83 77.01 2.83C75.12 2.83 73.95 4.19 73.50 6.62C73.16 8.47 73.43 10.64 75.68 10.64ZM78.71 6.83C78.41 8.67 77.55 9.37 76.45 9.37C75.18 9.37 75.18 7.92 75.42 6.54C75.73 4.72 76.45 4.07 77.43 4.07C78.88 4.07 78.95 5.32 78.71 6.83ZM85.71 10.50L87.37 10.50L88.75 3.25C88.82 2.91 88.83 2.66 88.83 2.66L91.60 10.50L93.84 10.50L95.72 0.88L94.05 0.88L92.65 8.19C92.60 8.46 92.55 8.76 92.55 8.76L89.77 0.88L87.57 0.88ZM101.56 7.17C101.09 9.13 100.27 9.38 99.40 9.38C97.92 9.38 97.72 7.74 98.03 6.30C98.43 4.38 99.39 4.10 100.14 4.10C101.63 4.10 101.89 5.74 101.56 7.17ZM103.43 7.32C103.98 4.90 103.11 2.84 100.30 2.84C97.89 2.84 96.53 4.12 96.11 6.30C95.65 8.68 96.70 10.64 99.26 10.64C101.51 10.64 102.94 9.48 103.43 7.32ZM110.12 7.17C109.66 9.13 108.84 9.38 107.97 9.38C106.48 9.38 106.29 7.74 106.60 6.30C107.00 4.38 107.95 4.10 108.71 4.10C110.19 4.10 110.46 5.74 110.12 7.17ZM112 7.32C112.55 4.90 111.68 2.84 108.86 2.84C106.46 2.84 105.10 4.12 104.68 6.30C104.22 8.68 105.27 10.64 107.83 10.64C110.08 10.64 111.51 9.48 112 7.32ZM117.71 10.50L119.66 10.50L117.66 5.96L121.00 3.00L118.89 3.00L115.54 6.17L116.84-0.48L115.02-0.48L112.90 10.50L114.72 10.50L115.29 7.62L116.30 7.03Z"></path></g><!----><!----></svg>